<svg width="261" height="37" viewBox="0 0 261 37" fill="none" xmlns="http://www.w3.org/2000/svg">
<path d="M13.3359 23.8359H4.64062V18.3516H13.3359C14.6797 18.3516 15.7734 18.1328 16.6172 17.6953C17.4609 17.2422 18.0781 16.6172 18.4688 15.8203C18.8594 15.0234 19.0547 14.125 19.0547 13.125C19.0547 12.1094 18.8594 11.1641 18.4688 10.2891C18.0781 9.41406 17.4609 8.71094 16.6172 8.17969C15.7734 7.64844 14.6797 7.38281 13.3359 7.38281H7.07812V36H0.046875V1.875H13.3359C16.0078 1.875 18.2969 2.35938 20.2031 3.32812C22.125 4.28125 23.5938 5.60156 24.6094 7.28906C25.625 8.97656 26.1328 10.9062 26.1328 13.0781C26.1328 15.2812 25.625 17.1875 24.6094 18.7969C23.5938 20.4062 22.125 21.6484 20.2031 22.5234C18.2969 23.3984 16.0078 23.8359 13.3359 23.8359Z" fill="#655E66"/>
<path d="M41.9062 36.4688C39.9375 36.4688 38.1719 36.1562 36.6094 35.5312C35.0469 34.8906 33.7188 34.0078 32.625 32.8828C31.5469 31.7578 30.7188 30.4531 30.1406 28.9688C29.5625 27.4688 29.2734 25.875 29.2734 24.1875V23.25C29.2734 21.3281 29.5469 19.5703 30.0938 17.9766C30.6406 16.3828 31.4219 15 32.4375 13.8281C33.4688 12.6562 34.7188 11.7578 36.1875 11.1328C37.6562 10.4922 39.3125 10.1719 41.1562 10.1719C42.9531 10.1719 44.5469 10.4688 45.9375 11.0625C47.3281 11.6562 48.4922 12.5 49.4297 13.5938C50.3828 14.6875 51.1016 16 51.5859 17.5312C52.0703 19.0469 52.3125 20.7344 52.3125 22.5938V25.4062H32.1562V20.9062H45.6797V20.3906C45.6797 19.4531 45.5078 18.6172 45.1641 17.8828C44.8359 17.1328 44.3359 16.5391 43.6641 16.1016C42.9922 15.6641 42.1328 15.4453 41.0859 15.4453C40.1953 15.4453 39.4297 15.6406 38.7891 16.0312C38.1484 16.4219 37.625 16.9688 37.2188 17.6719C36.8281 18.375 36.5312 19.2031 36.3281 20.1562C36.1406 21.0938 36.0469 22.125 36.0469 23.25V24.1875C36.0469 25.2031 36.1875 26.1406 36.4688 27C36.7656 27.8594 37.1797 28.6016 37.7109 29.2266C38.2578 29.8516 38.9141 30.3359 39.6797 30.6797C40.4609 31.0234 41.3438 31.1953 42.3281 31.1953C43.5469 31.1953 44.6797 30.9609 45.7266 30.4922C46.7891 30.0078 47.7031 29.2812 48.4688 28.3125L51.75 31.875C51.2188 32.6406 50.4922 33.375 49.5703 34.0781C48.6641 34.7812 47.5703 35.3594 46.2891 35.8125C45.0078 36.25 43.5469 36.4688 41.9062 36.4688Z" fill="#655E66"/>
<path d="M71.1328 30.4688V0H77.9297V36H71.8125L71.1328 30.4688ZM55.1016 23.625V23.1328C55.1016 21.1953 55.3203 19.4375 55.7578 17.8594C56.1953 16.2656 56.8359 14.8984 57.6797 13.7578C58.5234 12.6172 59.5625 11.7344 60.7969 11.1094C62.0312 10.4844 63.4375 10.1719 65.0156 10.1719C66.5 10.1719 67.7969 10.4844 68.9062 11.1094C70.0312 11.7344 70.9844 12.625 71.7656 13.7812C72.5625 14.9219 73.2031 16.2734 73.6875 17.8359C74.1719 19.3828 74.5234 21.0781 74.7422 22.9219V24C74.5234 25.7656 74.1719 27.4062 73.6875 28.9219C73.2031 30.4375 72.5625 31.7656 71.7656 32.9062C70.9844 34.0312 70.0312 34.9062 68.9062 35.5312C67.7812 36.1562 66.4688 36.4688 64.9688 36.4688C63.3906 36.4688 61.9844 36.1484 60.75 35.5078C59.5312 34.8672 58.5 33.9688 57.6562 32.8125C56.8281 31.6562 56.1953 30.2969 55.7578 28.7344C55.3203 27.1719 55.1016 25.4688 55.1016 23.625ZM61.8516 23.1328V23.625C61.8516 24.6719 61.9297 25.6484 62.0859 26.5547C62.2578 27.4609 62.5312 28.2656 62.9062 28.9688C63.2969 29.6562 63.7969 30.1953 64.4062 30.5859C65.0312 30.9609 65.7891 31.1484 66.6797 31.1484C67.8359 31.1484 68.7891 30.8906 69.5391 30.375C70.2891 29.8438 70.8594 29.1172 71.25 28.1953C71.6562 27.2734 71.8906 26.2109 71.9531 25.0078V21.9375C71.9062 20.9531 71.7656 20.0703 71.5312 19.2891C71.3125 18.4922 70.9844 17.8125 70.5469 17.25C70.125 16.6875 69.5938 16.25 68.9531 15.9375C68.3281 15.625 67.5859 15.4688 66.7266 15.4688C65.8516 15.4688 65.1016 15.6719 64.4766 16.0781C63.8516 16.4688 63.3438 17.0078 62.9531 17.6953C62.5781 18.3828 62.2969 19.1953 62.1094 20.1328C61.9375 21.0547 61.8516 22.0547 61.8516 23.1328Z" fill="#655E66"/>
<path d="M89.9531 16.1719V36H83.2031V10.6406H89.5547L89.9531 16.1719ZM97.5938 10.4766L97.4766 16.7344C97.1484 16.6875 96.75 16.6484 96.2812 16.6172C95.8281 16.5703 95.4141 16.5469 95.0391 16.5469C94.0859 16.5469 93.2578 16.6719 92.5547 16.9219C91.8672 17.1562 91.2891 17.5078 90.8203 17.9766C90.3672 18.4453 90.0234 19.0156 89.7891 19.6875C89.5703 20.3594 89.4453 21.125 89.4141 21.9844L88.0547 21.5625C88.0547 19.9219 88.2188 18.4141 88.5469 17.0391C88.875 15.6484 89.3516 14.4375 89.9766 13.4062C90.6172 12.375 91.3984 11.5781 92.3203 11.0156C93.2422 10.4531 94.2969 10.1719 95.4844 10.1719C95.8594 10.1719 96.2422 10.2031 96.6328 10.2656C97.0234 10.3125 97.3438 10.3828 97.5938 10.4766Z" fill="#655E66"/>
<path d="M99 23.5781V23.0859C99 21.2266 99.2656 19.5156 99.7969 17.9531C100.328 16.375 101.102 15.0078 102.117 13.8516C103.133 12.6953 104.383 11.7969 105.867 11.1562C107.352 10.5 109.055 10.1719 110.977 10.1719C112.898 10.1719 114.609 10.5 116.109 11.1562C117.609 11.7969 118.867 12.6953 119.883 13.8516C120.914 15.0078 121.695 16.375 122.227 17.9531C122.758 19.5156 123.023 21.2266 123.023 23.0859V23.5781C123.023 25.4219 122.758 27.1328 122.227 28.7109C121.695 30.2734 120.914 31.6406 119.883 32.8125C118.867 33.9688 117.617 34.8672 116.133 35.5078C114.648 36.1484 112.945 36.4688 111.023 36.4688C109.102 36.4688 107.391 36.1484 105.891 35.5078C104.406 34.8672 103.148 33.9688 102.117 32.8125C101.102 31.6406 100.328 30.2734 99.7969 28.7109C99.2656 27.1328 99 25.4219 99 23.5781ZM105.75 23.0859V23.5781C105.75 24.6406 105.844 25.6328 106.031 26.5547C106.219 27.4766 106.516 28.2891 106.922 28.9922C107.344 29.6797 107.891 30.2188 108.562 30.6094C109.234 31 110.055 31.1953 111.023 31.1953C111.961 31.1953 112.766 31 113.438 30.6094C114.109 30.2188 114.648 29.6797 115.055 28.9922C115.461 28.2891 115.758 27.4766 115.945 26.5547C116.148 25.6328 116.25 24.6406 116.25 23.5781V23.0859C116.25 22.0547 116.148 21.0859 115.945 20.1797C115.758 19.2578 115.453 18.4453 115.031 17.7422C114.625 17.0234 114.086 16.4609 113.414 16.0547C112.742 15.6484 111.93 15.4453 110.977 15.4453C110.023 15.4453 109.211 15.6484 108.539 16.0547C107.883 16.4609 107.344 17.0234 106.922 17.7422C106.516 18.4453 106.219 19.2578 106.031 20.1797C105.844 21.0859 105.75 22.0547 105.75 23.0859Z" fill="#655E66"/>
<path d="M151.852 28.875L159.891 1.875H167.719L155.836 36H150.68L151.852 28.875ZM144.445 1.875L152.461 28.875L153.68 36H148.477L136.664 1.875H144.445Z" fill="#655E66"/>
<path d="M177.609 10.6406V36H170.836V10.6406H177.609ZM170.414 4.03125C170.414 3.04688 170.758 2.23438 171.445 1.59375C172.133 0.953125 173.055 0.632812 174.211 0.632812C175.352 0.632812 176.266 0.953125 176.953 1.59375C177.656 2.23438 178.008 3.04688 178.008 4.03125C178.008 5.01562 177.656 5.82812 176.953 6.46875C176.266 7.10938 175.352 7.42969 174.211 7.42969C173.055 7.42969 172.133 7.10938 171.445 6.46875C170.758 5.82812 170.414 5.01562 170.414 4.03125Z" fill="#655E66"/>
<path d="M194.859 36.4688C192.891 36.4688 191.125 36.1562 189.562 35.5312C188 34.8906 186.672 34.0078 185.578 32.8828C184.5 31.7578 183.672 30.4531 183.094 28.9688C182.516 27.4688 182.227 25.875 182.227 24.1875V23.25C182.227 21.3281 182.5 19.5703 183.047 17.9766C183.594 16.3828 184.375 15 185.391 13.8281C186.422 12.6562 187.672 11.7578 189.141 11.1328C190.609 10.4922 192.266 10.1719 194.109 10.1719C195.906 10.1719 197.5 10.4688 198.891 11.0625C200.281 11.6562 201.445 12.5 202.383 13.5938C203.336 14.6875 204.055 16 204.539 17.5312C205.023 19.0469 205.266 20.7344 205.266 22.5938V25.4062H185.109V20.9062H198.633V20.3906C198.633 19.4531 198.461 18.6172 198.117 17.8828C197.789 17.1328 197.289 16.5391 196.617 16.1016C195.945 15.6641 195.086 15.4453 194.039 15.4453C193.148 15.4453 192.383 15.6406 191.742 16.0312C191.102 16.4219 190.578 16.9688 190.172 17.6719C189.781 18.375 189.484 19.2031 189.281 20.1562C189.094 21.0938 189 22.125 189 23.25V24.1875C189 25.2031 189.141 26.1406 189.422 27C189.719 27.8594 190.133 28.6016 190.664 29.2266C191.211 29.8516 191.867 30.3359 192.633 30.6797C193.414 31.0234 194.297 31.1953 195.281 31.1953C196.5 31.1953 197.633 30.9609 198.68 30.4922C199.742 30.0078 200.656 29.2812 201.422 28.3125L204.703 31.875C204.172 32.6406 203.445 33.375 202.523 34.0781C201.617 34.7812 200.523 35.3594 199.242 35.8125C197.961 36.25 196.5 36.4688 194.859 36.4688Z" fill="#655E66"/>
<path d="M216.234 10.6406V36H209.461V10.6406H216.234ZM209.039 4.03125C209.039 3.04688 209.383 2.23438 210.07 1.59375C210.758 0.953125 211.68 0.632812 212.836 0.632812C213.977 0.632812 214.891 0.953125 215.578 1.59375C216.281 2.23438 216.633 3.04688 216.633 4.03125C216.633 5.01562 216.281 5.82812 215.578 6.46875C214.891 7.10938 213.977 7.42969 212.836 7.42969C211.68 7.42969 210.758 7.10938 210.07 6.46875C209.383 5.82812 209.039 5.01562 209.039 4.03125Z" fill="#655E66"/>
<path d="M228.562 16.1719V36H221.812V10.6406H228.164L228.562 16.1719ZM236.203 10.4766L236.086 16.7344C235.758 16.6875 235.359 16.6484 234.891 16.6172C234.438 16.5703 234.023 16.5469 233.648 16.5469C232.695 16.5469 231.867 16.6719 231.164 16.9219C230.477 17.1562 229.898 17.5078 229.43 17.9766C228.977 18.4453 228.633 19.0156 228.398 19.6875C228.18 20.3594 228.055 21.125 228.023 21.9844L226.664 21.5625C226.664 19.9219 226.828 18.4141 227.156 17.0391C227.484 15.6484 227.961 14.4375 228.586 13.4062C229.227 12.375 230.008 11.5781 230.93 11.0156C231.852 10.4531 232.906 10.1719 234.094 10.1719C234.469 10.1719 234.852 10.2031 235.242 10.2656C235.633 10.3125 235.953 10.3828 236.203 10.4766Z" fill="#655E66"/>
<path d="M252.281 30.2812V18.9844C252.281 18.1719 252.148 17.4766 251.883 16.8984C251.617 16.3047 251.203 15.8438 250.641 15.5156C250.094 15.1875 249.383 15.0234 248.508 15.0234C247.758 15.0234 247.109 15.1562 246.562 15.4219C246.016 15.6719 245.594 16.0391 245.297 16.5234C245 16.9922 244.852 17.5469 244.852 18.1875H238.102C238.102 17.1094 238.352 16.0859 238.852 15.1172C239.352 14.1484 240.078 13.2969 241.031 12.5625C241.984 11.8125 243.117 11.2266 244.43 10.8047C245.758 10.3828 247.242 10.1719 248.883 10.1719C250.852 10.1719 252.602 10.5 254.133 11.1562C255.664 11.8125 256.867 12.7969 257.742 14.1094C258.633 15.4219 259.078 17.0625 259.078 19.0312V29.8828C259.078 31.2734 259.164 32.4141 259.336 33.3047C259.508 34.1797 259.758 34.9453 260.086 35.6016V36H253.266C252.938 35.3125 252.688 34.4531 252.516 33.4219C252.359 32.375 252.281 31.3281 252.281 30.2812ZM253.172 20.5547L253.219 24.375H249.445C248.555 24.375 247.781 24.4766 247.125 24.6797C246.469 24.8828 245.93 25.1719 245.508 25.5469C245.086 25.9062 244.773 26.3281 244.57 26.8125C244.383 27.2969 244.289 27.8281 244.289 28.4062C244.289 28.9844 244.422 29.5078 244.688 29.9766C244.953 30.4297 245.336 30.7891 245.836 31.0547C246.336 31.3047 246.922 31.4297 247.594 31.4297C248.609 31.4297 249.492 31.2266 250.242 30.8203C250.992 30.4141 251.57 29.9141 251.977 29.3203C252.398 28.7266 252.617 28.1641 252.633 27.6328L254.414 30.4922C254.164 31.1328 253.82 31.7969 253.383 32.4844C252.961 33.1719 252.422 33.8203 251.766 34.4297C251.109 35.0234 250.32 35.5156 249.398 35.9062C248.477 36.2812 247.383 36.4688 246.117 36.4688C244.508 36.4688 243.047 36.1484 241.734 35.5078C240.438 34.8516 239.406 33.9531 238.641 32.8125C237.891 31.6562 237.516 30.3438 237.516 28.875C237.516 27.5469 237.766 26.3672 238.266 25.3359C238.766 24.3047 239.5 23.4375 240.469 22.7344C241.453 22.0156 242.68 21.4766 244.148 21.1172C245.617 20.7422 247.32 20.5547 249.258 20.5547H253.172Z" fill="#655E66"/>
</svg>
